<?xml version="1.0" encoding="UTF-8" standalone="no"?>
<svg width="200px" height="200px" viewBox="0 0 200 200" version="1.1" xmlns="http://www.w3.org/2000/svg" xmlns:xlink="http://www.w3.org/1999/xlink">
    <!-- Generator: Sketch 3.7.2 (28276) - http://www.bohemiancoding.com/sketch -->
    <title>Facebook</title>
    <desc>Created with Sketch.</desc>
    <defs></defs>
    <g id="Page-1" stroke="none" stroke-width="1" fill="none" fill-rule="evenodd">
        <path d="M83.0148642,198.563409 C35.8763434,190.497976 0,149.438784 0,100 C0,44.7714 44.7714,0 100,0 C155.2286,0 200,44.7714 200,100 C200,151.034119 161.77092,193.139119 112.387459,199.240302 L112.387459,127.016912 L136.884864,127.016912 L140.552554,98.5735974 L112.387459,98.5735974 L112.387459,80.413798 C112.387459,72.1787946 114.67394,66.5671009 126.483423,66.5671009 L141.545387,66.5600395 L141.545387,41.120644 C138.939025,40.7746355 129.999294,40 119.597853,40 C97.8819334,40 83.0148642,53.2549518 83.0148642,77.5977121 L83.0148642,98.5735974 L58.4546129,98.5735974 L58.4546129,127.016912 L83.0148642,127.016912 L83.0148642,198.563409 Z" id="Facebook" fill="#808080"></path>
    </g>
</svg>