<?xml version="1.0" encoding="UTF-8" standalone="no"?>
<svg width="200px" height="200px" viewBox="0 0 200 200" version="1.1" xmlns="http://www.w3.org/2000/svg" xmlns:xlink="http://www.w3.org/1999/xlink">
    <!-- Generator: Sketch 3.7.2 (28276) - http://www.bohemiancoding.com/sketch -->
    <title>GitHub</title>
    <desc>Created with Sketch.</desc>
    <defs></defs>
    <g id="Page-1" stroke="none" stroke-width="1" fill="none" fill-rule="evenodd">
        <path d="M0,100 C0,155.2286 44.7714,200 100,200 C155.2286,200 200,155.2286 200,100 C200,44.7714 155.2286,0 100,0 C44.7714,0 0,44.7714 0,100 Z M151,25 C153.185934,28.3387849 154.40198,37.6398342 154,44 L153,49 L156,52 C160.761295,57.8887355 163.581784,65.4021357 164,74 C164.461685,79.4154423 163.752158,91.2187607 163,95 C162.613592,96.5171783 162.468043,97.6735163 163,98 C162.683063,97.8880822 167.269361,97.7586234 173,97 C178.628798,97.2110211 183.535224,97.1804544 185,97 C185.967516,97.7098766 183.330014,97.8990702 175,98 C169.099837,98.2315074 163.53874,98.5715363 163,99 C161.989152,99.183868 161.443994,99.8491419 161,101 C160.694026,102.706024 159.465567,102.463689 173,103 C177.892244,103.362508 183.030707,103.764469 184,104 C186.10766,104.546216 184.896218,104.570589 181,104 C179.104485,103.814215 173.747398,103.586863 169,104 L160,103 L159,106 C156.433661,110.219824 150.335014,116.061449 146,118 C141.47774,120.641051 134.002483,122.990886 127,124 C124.252695,124.601329 121.366138,125.13115 121,125 C120.572925,125.400656 121.034598,126.163624 122,128 C124.888746,130.275536 126.110198,132.466145 127,136 C127.818348,138.177712 128.046782,141.773388 128,153 C128.560107,167.197641 128.536283,167.708484 128,168 C124.868926,168.81108 119.72786,170.139431 119,170 C118.865376,170.139431 118.668174,166.643845 119,157 C118.333031,143.76901 118.082374,142.020718 116,140 C115.412038,139.81073 115.358183,140.904936 115,155 L115,171 L112,171 C110.479385,171.528115 108.21967,171.702924 107,172 L105,172 L105,163 C104.874844,158.782425 104.716882,151.290601 105,147 L105,138 L103,138 L102,138 L102,155 L102,172 L98,172 C95.867617,171.884126 93.4501405,171.766055 93,172 L91,171 L91,155 C91.1023354,140.839207 91.0310624,139.363018 90,140 C88.2123749,141.697271 88.0798391,142.653627 88,157 L88,171 L86,171 C85.1083951,170.61631 82.972407,170.133038 81,170 L78,169 L78,160 L78,151 L76,151 C71.4636173,151.868371 63.93991,151.661596 61,151 C55.1412966,149.050646 51.3998639,145.677327 48,139 C45.3971146,133.335197 42.9263836,130.016619 39,127 C35.4303045,123.972815 34.7179748,122.906578 36,122 C36.5202211,121.944228 38.0477859,121.732659 39,122 C41.7165442,121.742848 45.9264569,123.676538 49,126 C49.6803023,127.12937 51.5604284,129.301199 53,131 C57.4899026,137.59315 62.5550914,140.282615 69,140 C73.297496,139.428347 78.0323464,138.056444 79,137 C78.7376689,136.700724 79.3709176,135.158008 80,134 C80.6179951,131.90316 81.9031116,129.946695 84,128 C85.9002063,125.638397 85.9748828,125.473177 85,125 C84.3560244,125.151928 81.3551503,124.611517 78,124 C66.8554967,122.039125 58.4272628,118.248262 52,112 C49.9934231,110.299737 47.5799507,107.600283 47,106 L45,104 L35,104 C29.5620931,104.351428 23.4452269,104.783357 21,105 C18.0080571,105.794054 16.8690903,105.810836 17,105 C17.8248694,104.857077 31.3297039,103.590659 38,103 C41.5691933,103.138352 44.4541486,102.812508 44,103 C44.4541486,102.327437 44.1428297,101.523914 44,101 C42.8138683,98.9595128 41.5307539,98.8240607 28,99 C21.1929197,99.0873733 15.9997998,99.0108568 16,99 C16.001001,98.2249146 25.3363642,97.8609118 34,98 C42.1005376,98.415107 42.6633141,98.3841408 42,98 C42.1986381,97.1886455 41.6018267,95.0443856 41,93 C40.1559455,89.3983474 40.0272136,87.6520533 40,79 C40.0218081,69.1140847 40.0986869,68.2144665 41,65 C42.5818306,60.907441 45.0859959,56.1232623 48,53 L49,51 L49,47 C47.3967631,41.8796071 47.6005719,34.3374382 49,29 C50.3323703,24.4296511 50.5177602,24.2686269 54,25 C59.552015,24.9668648 66.0034239,27.5342629 74,32 L78,35 L82,34 C92.8303055,30.9850968 109.091363,30.7281772 121,33 L125,34 L129,31 C133.925003,28.2219124 139.077882,25.9499919 144,25 C145.798366,24.3411477 147.340746,24.0466691 148,24 C149.858926,23.9515729 150.54603,24.3181728 151,25 Z M45,126 C44.3279276,126 44,126.177586 44,127 C44,127.960904 45.2160805,128.384769 47,128 C47.5542826,127.032269 46.7569319,126 45,126 L45,126 L45,126 Z M41,124 C40.3279276,124 40,124.177586 40,125 C40,125.960904 41.2160805,126.384769 43,126 C43.5542826,125.032269 42.7569319,124 41,124 L41,124 L41,124 Z M48,129 C47.2976748,129.011025 46.768315,129.583916 47,130 C47.4754077,131.350437 49.7855511,131.106779 50,130 C50.0815167,129.609313 49.7410219,129.277872 49,129 C48.6901716,129.024644 48.4554337,128.997591 48,129 L48,129 L48,129 Z M51,133 C49.0970827,133 48.4744967,133.850269 50,135 C50.5176796,135.381223 51.9999999,134.930435 52,134 C52.000191,133.21619 51.6778145,133 51,133 L51,133 L51,133 Z M54,136 C54.2519231,136 54.1843854,136.002489 54,136 C53.5375371,136.087111 53.1216367,136.492978 53,137 C52.9102902,137.856 53.0927197,138 54,138 C54.9944499,138 55.7410522,137.804444 56,138 C56.3232739,136.941333 55.3158363,136.001422 54,136 L54,136 L54,136 Z M57,139 C56.3359692,139.021324 55.7516808,139.601953 56,140 C56.546799,141.408298 59,141.06324 59,140 C59,139.436135 58.6350476,139.120568 58,139 C57.7161858,139.007196 57.5507219,138.997661 57,139 L57,139 L57,139 Z M74,140 C74.0912102,140 73.5265686,140.338143 73,141 C72.5942955,141.6695 73.336969,143 74,143 C74.9041928,143 75.4744374,142.661857 76,142 C76.4065298,141.3305 75.6582532,140 74,140 L74,140 L74,140 Z M68,141 C67.2901961,141.080482 66.718333,142.029695 67,143 C67.4808793,144.399832 69.1244493,144.124463 70,143 C70.1246966,142.198434 70.0836493,141.874758 70,141 C69.0895591,141.118771 68.6107987,140.970512 68,141 L68,141 L68,141 Z M63,141 C62.7149623,141.031236 62.1431644,141.442676 62,142 C61.7472447,143.87813 63.6640849,144.692827 65,143 C65.1158551,142.639945 65.1121748,142.317612 65,142 C64.3147182,141.189902 63.8070344,140.978726 63,141 L63,141 L63,141 Z" id="GitHub" fill="#808080"></path>
    </g>
</svg>