<?xml version="1.0" encoding="UTF-8" standalone="no"?>
<svg width="200px" height="200px" viewBox="0 0 200 200" version="1.1" xmlns="http://www.w3.org/2000/svg" xmlns:xlink="http://www.w3.org/1999/xlink">
    <!-- Generator: Sketch 3.7.2 (28276) - http://www.bohemiancoding.com/sketch -->
    <title>Instagram</title>
    <desc>Created with Sketch.</desc>
    <defs></defs>
    <g id="Page-1" stroke="none" stroke-width="1" fill="none" fill-rule="evenodd">
        <path d="M100,0 C44.7714,0 0,44.7714 0,100 C0,155.2286 44.7714,200 100,200 C155.2286,200 200,155.2286 200,100 C200,44.7714 155.2286,0 100,0 Z M99.6409956,33 C81.5422915,33 79.2728773,33.0767141 72.1649206,33.4010295 C65.0717777,33.7245513 60.2274156,34.8511902 55.9885656,36.4986913 C51.6063397,38.2014794 47.8899392,40.4801522 44.1849134,44.1849134 C40.4801522,47.8899392 38.2014794,51.6063397 36.4986913,55.9885656 C34.8511902,60.2274156 33.7245513,65.0717777 33.4010295,72.1649206 C33.0767141,79.2728773 33,81.5422915 33,99.6409956 C33,117.739435 33.0767141,120.008849 33.4010295,127.116806 C33.7245513,134.209949 34.8511902,139.054311 36.4986913,143.293161 C38.2014794,147.675387 40.4801522,151.391788 44.1849134,155.096813 C47.8899392,158.801574 51.6063397,161.080247 55.9885656,162.7833 C60.2274156,164.430537 65.0717777,165.557175 72.1649206,165.880697 C79.2728773,166.205013 81.5422915,166.281727 99.6409956,166.281727 C117.739435,166.281727 120.008849,166.205013 127.116806,165.880697 C134.209949,165.557175 139.054311,164.430537 143.293161,162.7833 C147.675387,161.080247 151.391788,158.801574 155.096813,155.096813 C158.801574,151.391788 161.080247,147.675387 162.7833,143.293161 C164.430537,139.054311 165.557175,134.209949 165.880697,127.116806 C166.205013,120.008849 166.281727,117.739435 166.281727,99.6409956 C166.281727,81.5422915 166.205013,79.2728773 165.880697,72.1649206 C165.557175,65.0717777 164.430537,60.2274156 162.7833,55.9885656 C161.080247,51.6063397 158.801574,47.8899392 155.096813,44.1849134 C151.391788,40.4801522 147.675387,38.2014794 143.293161,36.4986913 C139.054311,34.8511902 134.209949,33.7245513 127.116806,33.4010295 C120.008849,33.0767141 117.739435,33 99.6409956,33 Z M99.6409956,45.0073413 C117.434695,45.0073413 119.542481,45.0753259 126.569491,45.3959378 C133.066909,45.6922129 136.595492,46.7778495 138.943737,47.6904825 C142.054361,48.8993907 144.274308,50.3434672 146.606151,52.6755753 C148.93826,55.007419 150.382336,57.2273658 151.591244,60.3379897 C152.503877,62.6862342 153.589514,66.2148175 153.885789,72.7122359 C154.206401,79.739246 154.274385,81.8470316 154.274385,99.6409956 C154.274385,117.434695 154.206401,119.542481 153.885789,126.569491 C153.589514,133.066909 152.503877,136.595492 151.591244,138.943737 C150.382336,142.054361 148.93826,144.274308 146.606151,146.606151 C144.274308,148.93826 142.054361,150.382336 138.943737,151.591244 C136.595492,152.503877 133.066909,153.589514 126.569491,153.885789 C119.543539,154.206401 117.436018,154.274385 99.6409956,154.274385 C81.8457089,154.274385 79.7384524,154.206401 72.7122359,153.885789 C66.2148175,153.589514 62.6862342,152.503877 60.3379897,151.591244 C57.2273658,150.382336 55.007419,148.93826 52.6755753,146.606151 C50.3437317,144.274308 48.8993907,142.054361 47.6904825,138.943737 C46.7778495,136.595492 45.6922129,133.066909 45.3959378,126.569491 C45.0753259,119.542481 45.0073413,117.434695 45.0073413,99.6409956 C45.0073413,81.8470316 45.0753259,79.739246 45.3959378,72.7122359 C45.6922129,66.2148175 46.7778495,62.6862342 47.6904825,60.3379897 C48.8993907,57.2273658 50.3434672,55.007419 52.6755753,52.6755753 C55.007419,50.3434672 57.2273658,48.8993907 60.3379897,47.6904825 C62.6862342,46.7778495 66.2148175,45.6922129 72.7122359,45.3959378 C79.739246,45.0753259 81.8470316,45.0073413 99.6409956,45.0073413 Z M142.720604,64.4287404 C142.720604,68.8453554 139.140173,72.4255224 134.723558,72.4255224 C130.307207,72.4255224 126.726776,68.8453554 126.726776,64.4287404 C126.726776,60.0121255 130.307207,56.431694 134.723558,56.431694 C139.140173,56.431694 142.720604,60.0121255 142.720604,64.4287404 Z M99.4396739,65.9508197 C80.5397044,65.9508197 65.2185792,81.2719449 65.2185792,100.171914 C65.2185792,119.071619 80.5397044,134.392745 99.4396739,134.392745 C118.339379,134.392745 133.660504,119.071619 133.660504,100.171914 C133.660504,81.2719449 118.339379,65.9508197 99.4396739,65.9508197 Z M99.4396739,122.385403 C87.1712402,122.385403 77.2259206,112.440084 77.2259206,100.171914 C77.2259206,87.9034806 87.1712402,77.958161 99.4396739,77.958161 C111.707843,77.958161 121.653163,87.9034806 121.653163,100.171914 C121.653163,112.440084 111.707843,122.385403 99.4396739,122.385403 Z" id="Instagram" fill="#808080"></path>
    </g>
</svg>