<?xml version="1.0" encoding="UTF-8" standalone="no"?>
<svg width="200px" height="200px" viewBox="0 0 200 200" version="1.1" xmlns="http://www.w3.org/2000/svg" xmlns:xlink="http://www.w3.org/1999/xlink">
    <!-- Generator: Sketch 3.7.2 (28276) - http://www.bohemiancoding.com/sketch -->
    <title>Twitter</title>
    <desc>Created with Sketch.</desc>
    <defs></defs>
    <g id="Page-1" stroke="none" stroke-width="1" fill="none" fill-rule="evenodd">
        <path d="M100,0 C44.772,0 0,44.772 0,100 C0,155.228 44.772,200 100,200 C155.228,200 200,155.228 200,100 C200,44.772 155.228,0 100,0 Z M168,58.0215863 C162.996072,60.2302208 157.618552,61.7229429 151.974396,62.3942965 C157.735455,58.9573225 162.159347,53.5151995 164.242701,47.0308941 C158.85175,50.2128924 152.880266,52.5240123 146.524745,53.7696802 C141.434756,48.3726111 134.183313,45 126.158323,45 C110.748572,45 98.2554153,57.4334092 98.2554153,72.769086 C98.2554153,74.9455392 98.5026519,77.0650559 98.9782216,79.0974354 C75.7887267,77.9393999 55.2292915,66.8838499 41.4676177,50.0831766 C39.0658912,54.1845727 37.6899228,58.954847 37.6899228,64.0439647 C37.6899228,73.6780869 42.6162479,82.1779384 50.1029884,87.1576394 C45.5288635,87.0135657 41.2268481,85.7644321 37.4645744,83.6845232 C37.4625846,83.8003763 37.4625846,83.9167244 37.4625846,84.0335677 C37.4625846,97.4883652 47.0804345,108.712249 59.8447054,111.262996 C57.5031713,111.897713 55.0382677,112.236855 52.4932733,112.236855 C50.6954607,112.236855 48.9473938,112.063076 47.2440982,111.738786 C50.7944548,122.771562 61.0987966,130.800079 73.3084019,131.024359 C63.7592011,138.472126 51.7281832,142.911674 38.655986,142.911674 C36.4039943,142.911674 34.182845,142.780473 32,142.524012 C44.3478986,150.40301 59.0144482,155 74.7714254,155 C126.093156,155 154.157738,112.685414 154.157738,75.9892069 C154.157738,74.7851272 154.130875,73.5874839 154.07715,72.396772 C159.528293,68.4815328 164.259117,63.5904545 168,58.0215863 Z" id="Twitter" fill="#808080"></path>
    </g>
</svg>