<?xml version="1.0" encoding="UTF-8" standalone="no"?>
<svg
   xmlns:dc="http://purl.org/dc/elements/1.1/"
   xmlns:cc="http://creativecommons.org/ns#"
   xmlns:rdf="http://www.w3.org/1999/02/22-rdf-syntax-ns#"
   xmlns:svg="http://www.w3.org/2000/svg"
   xmlns="http://www.w3.org/2000/svg"
   version="1.1"
   id="svg4272"
   viewBox="0 0 1052.3622 744.09448"
   height="210mm"
   width="297mm">
  <defs
     id="defs4274" />
  <metadata
     id="metadata4277">
    <rdf:RDF>
      <cc:Work
         rdf:about="">
        <dc:format>image/svg+xml</dc:format>
        <dc:type
           rdf:resource="http://purl.org/dc/dcmitype/StillImage" />
        <dc:title></dc:title>
      </cc:Work>
    </rdf:RDF>
  </metadata>
  <g
     transform="translate(0,-308.26772)"
     id="layer1">
    <circle
       r="8.7500229"
       cy="605.67834"
       cx="775.95508"
       id="path3201-3-7-9-6"
       style="opacity:1;fill:none;fill-opacity:1;stroke:#418261;stroke-width:1.95038486;stroke-linecap:square;stroke-linejoin:round;stroke-miterlimit:4;stroke-dasharray:none;stroke-dashoffset:0;stroke-opacity:1" />
    <circle
       r="5.3175859"
       cy="633.32166"
       cx="783.90448"
       id="path3201-3-7-9-6-0"
       style="opacity:1;fill:none;fill-opacity:1;stroke:#418261;stroke-width:1.95038486;stroke-linecap:square;stroke-linejoin:round;stroke-miterlimit:4;stroke-dasharray:none;stroke-dashoffset:0;stroke-opacity:1" />
    <circle
       r="11.662613"
       cy="572.0318"
       cx="766.16461"
       id="path3201-3-7-9"
       style="opacity:1;fill:none;fill-opacity:1;stroke:#418261;stroke-width:1.95038486;stroke-linecap:square;stroke-linejoin:round;stroke-miterlimit:4;stroke-dasharray:none;stroke-dashoffset:0;stroke-opacity:1" />
    <circle
       r="20.61986"
       cy="566.83881"
       cx="623.0871"
       id="path3201"
       style="opacity:1;fill:none;fill-opacity:1;stroke:#242029;stroke-width:2.34046197;stroke-linecap:square;stroke-linejoin:round;stroke-miterlimit:4;stroke-dasharray:none;stroke-dashoffset:0;stroke-opacity:1" />
    <path
       id="path3323"
       d="m 636.45831,581.91965 149.85976,89.90916"
       style="fill:#d4aa00;fill-rule:evenodd;stroke:#242029;stroke-width:2.14079833;stroke-linecap:butt;stroke-linejoin:miter;stroke-miterlimit:4;stroke-dasharray:none;stroke-opacity:0.9254902" />
    <path
       id="path3323-6"
       d="m 759.0222,547.98936 34.703,119.25307"
       style="fill:none;fill-rule:evenodd;stroke:#242029;stroke-width:2.21148181;stroke-linecap:butt;stroke-linejoin:miter;stroke-miterlimit:4;stroke-dasharray:none;stroke-opacity:0.9254902" />
    <circle
       r="11.662613"
       cy="537.3739"
       cx="756.02075"
       id="path3201-3-7"
       style="opacity:1;fill:none;fill-opacity:1;stroke:#242029;stroke-width:2.34046197;stroke-linecap:square;stroke-linejoin:round;stroke-miterlimit:4;stroke-dasharray:none;stroke-dashoffset:0;stroke-opacity:1" />
    <path
       id="path3479"
       d="m 618.20374,581.22758 c -2.19244,-1.01204 -3.74122,-4.24319 -3.9982,-8.34132 -0.0833,-1.32791 -0.37708,-2.9079 -0.65292,-3.51113 -0.94276,-2.06167 -1.17719,-3.65221 -1.17896,-7.99907 -0.003,-6.32612 0.95208,-8.3618 4.71541,-10.05491 3.34553,-1.50511 6.21073,-0.74354 9.46571,2.51605 3.8483,3.85374 6.52488,10.29271 7.07761,17.02636 0.34536,4.20741 -0.82289,7.77736 -2.98171,9.11159 -1.64538,1.0169 -4.4205,1.63495 -7.90503,1.76054 -2.65634,0.0957 -3.41846,0.0105 -4.54191,-0.50811 z m 8.78237,-0.84145 c 0.75225,-0.25146 1.58321,-0.4572 1.8466,-0.4572 0.59716,0 2.03139,-0.90958 2.76802,-1.75544 1.06998,-1.22867 1.59443,-3.80993 1.38031,-6.79377 -0.59308,-8.26467 -4.20463,-15.4524 -9.56175,-19.02991 -2.49619,-1.66695 -6.34276,-0.88857 -8.59149,1.73856 -1.46656,1.71335 -1.50205,2.15269 -0.1041,1.28871 1.45775,-0.90093 2.23813,-0.88032 2.03554,0.0537 -0.0857,0.395 -0.26142,0.96955 -0.39056,1.27677 -0.2901,0.69015 0.62733,0.79026 1.01462,0.11073 0.43571,-0.76449 3.32417,-2.10575 4.5321,-2.10449 2.71859,0.003 4.50182,2.58001 1.94742,2.81451 -1.50253,0.13792 -1.91903,0.60902 -0.76435,0.86455 2.97852,0.65915 5.44521,2.27786 6.33793,4.15914 0.96328,2.02995 -0.13688,2.70591 -2.26417,1.39117 -1.49915,-0.92651 -1.34019,-0.30714 0.38887,1.51536 2.68933,2.83464 3.21387,3.91143 3.04508,6.25112 -0.0622,0.86264 -0.75191,0.66943 -1.69151,-0.47387 -1.01321,-1.2329 -1.4237,-1.0261 -0.93036,0.46875 0.38114,1.15486 0.0443,3.80917 -0.64743,5.10166 l -0.36951,0.69046 -0.5947,-0.73441 c -0.32708,-0.40393 -0.59468,-1.14094 -0.59468,-1.6378 0,-1.85946 -0.86347,-1.40972 -1.5638,0.81451 -0.70653,2.24391 -4.14434,4.02016 -4.65665,2.406 -0.10933,-0.34447 -0.0472,-0.90957 0.13809,-1.25579 0.6065,-1.13324 0.35571,-1.09988 -0.77941,0.10371 -0.82727,0.87715 -1.28182,1.13108 -1.75557,0.98072 -0.43073,-0.13671 -0.63927,-0.0578 -0.63927,0.24176 0,0.72627 1.42897,1.85038 2.91844,2.29582 1.66943,0.49925 5.58497,0.33056 7.54629,-0.32509 z m -5.0358,-2.77136 c 1.10801,-0.75453 1.29884,-1.02401 1.92993,-2.72534 0.39419,-1.06268 1.35499,-1.83941 1.87656,-1.51706 0.15666,0.0968 0.38176,0.74982 0.50025,1.45113 0.42486,2.51471 1.3076,0.93912 1.02254,-1.82511 -0.0867,-0.84045 -0.20863,-1.79549 -0.27101,-2.1223 -0.0624,-0.32682 0.13198,-0.75323 0.43193,-0.9476 0.43078,-0.27914 0.75457,-0.19869 1.54125,0.38293 0.54777,0.40496 1.06641,0.66582 1.15256,0.57967 0.3713,-0.3713 -1.29434,-3.09363 -3.06331,-5.00667 -1.05518,-1.14111 -1.92142,-2.32612 -1.92497,-2.63334 -0.01,-0.84255 1.43958,-0.70544 2.69928,0.25538 1.29556,0.98817 1.77108,0.54219 0.83041,-0.77884 -1.55064,-2.17767 -2.89193,-2.94125 -6.48866,-3.69393 -1.56433,-0.32735 -0.93421,-1.58065 0.98799,-1.96508 1.32504,-0.26501 1.28172,-0.939 -0.0894,-1.39151 -1.50654,-0.49721 -3.22324,0.01 -4.90402,1.44856 -2.00249,1.71406 -2.847,1.26031 -2.10964,-1.13345 0.24008,-0.77932 0.22947,-0.78505 -0.53058,-0.28649 -1.21766,0.79871 -2.13365,2.38443 -2.36998,4.10279 -0.24352,1.77059 -0.076,2.24559 0.79211,2.24559 1.23004,0 3.5599,4.18051 3.59217,6.4455 0.0278,1.94933 -0.30499,2.74769 -1.37611,3.3016 -0.71921,0.37192 -0.93496,0.70488 -0.93496,1.44287 0,0.56226 0.20003,1.03617 0.48322,1.14484 0.26577,0.10198 0.63945,0.8059 0.83041,1.56424 0.50098,1.98957 1.07394,2.02076 2.24222,0.12205 0.63893,-1.0384 1.17156,-1.56994 1.50879,-1.50572 0.71062,0.13534 0.82192,1.28799 0.23415,2.42463 -0.76844,1.48599 -0.21945,1.72818 1.40691,0.62066 z m -5.17012,-8.02068 c 0.43469,-1.53908 0.42808,-1.57247 -0.788,-3.97361 -1.31803,-2.60247 -2.0626,-3.33662 -2.71864,-2.68057 -0.9311,0.9311 1.41878,8.52397 2.56945,8.30237 0.29024,-0.0559 0.68211,-0.74508 0.93719,-1.64819 z"
       style="fill:#666666;fill-opacity:1;stroke:none;stroke-width:5;stroke-miterlimit:4;stroke-dasharray:none;stroke-opacity:1" />
    <path
       id="path3492"
       d="m 752.204,543.43922 c -0.81331,-0.13674 -1.703,-0.53276 -2.28452,-1.01687 -0.32833,-0.27334 -0.74615,-0.49699 -0.92846,-0.49699 -0.18236,0 -0.52544,-0.18894 -0.76241,-0.41988 -0.593,-0.57788 -0.58188,-1.30719 0.0304,-1.9962 0.36578,-0.41157 0.41972,-0.55957 0.34752,-0.95331 -0.14585,-0.79538 0.1632,-1.5613 0.91605,-2.2702 1.04829,-0.98706 4.52657,-3.5111 5.5059,-3.9954 1.5559,-0.76945 2.7619,-1.0628 4.05852,-0.98722 1.72706,0.10066 1.97453,0.20118 2.72464,1.10673 0.35358,0.42681 0.51896,0.80045 0.63376,1.43168 0.23046,1.26686 0.25195,1.32187 0.68919,1.76257 0.5786,0.58319 0.79338,1.10696 0.81113,1.97801 0.0281,1.37086 -0.72917,2.58905 -2.18365,3.51348 -0.77458,0.49229 -3.06979,1.42678 -4.73717,1.92873 -1.03102,0.31036 -1.69348,0.41224 -2.87916,0.44277 -0.84702,0.0218 -1.72079,0.009 -1.94177,-0.0279 z m 4.7442,-1.0265 c 3.51669,-0.98166 5.62307,-2.20066 6.16149,-3.56582 0.55708,-1.41223 0.19328,-3.30206 -0.40205,-2.08883 -0.30609,0.62374 -1.30149,1.48197 -2.43915,2.10301 -1.03382,0.56434 -1.43884,0.69771 -1.43283,0.47183 0,-0.0602 0.1762,-0.20812 0.38801,-0.32862 1.84483,-1.04942 3.01845,-2.08303 3.15931,-2.78238 0.10798,-0.53627 -0.20034,-1.12686 -0.83652,-1.60229 -0.55761,-0.41672 -1.79958,-0.54609 -2.98155,-0.31059 -0.40509,0.0807 -0.94742,0.18615 -1.20522,0.23432 -0.25776,0.0482 -0.60427,0.11984 -0.77001,0.15927 -0.42207,0.10042 -0.37635,-0.12034 0.067,-0.32324 1.36508,-0.62482 4.1631,-0.87354 4.78972,-0.42575 0.42269,0.30207 0.46649,0.29288 0.46591,-0.0977 0,-0.39444 -0.44422,-1.22299 -0.84698,-1.58186 -0.45974,-0.40968 -1.68755,-0.58382 -2.92393,-0.41474 -1.95608,0.2675 -3.02036,0.80106 -6.01737,3.01654 -2.59658,1.91951 -2.92624,2.25906 -3.03257,3.12353 l -0.078,0.63427 0.85875,-0.85309 c 0.901,-0.8951 1.65553,-1.38962 1.82794,-1.19807 0.11168,0.12406 -0.54813,0.78666 -1.33363,1.33932 -0.27411,0.19285 -0.5882,0.53173 -0.69796,0.75307 -0.10974,0.22135 -0.40935,0.56676 -0.66575,0.76758 -0.68221,0.53428 -0.85626,0.9472 -0.6052,1.43551 0.14401,0.28006 0.3504,0.41858 0.73131,0.49082 0.29189,0.0554 0.97733,0.23233 1.52321,0.39328 1.26561,0.37315 2.03593,0.24329 3.08949,-0.52086 0.25647,-0.18601 0.54271,-0.33821 0.6361,-0.33821 0.70943,0 -0.85708,1.13222 -2.0073,1.4508 l -0.96462,0.26718 0.73389,0.15803 c 1.7326,0.37309 2.3201,0.32833 4.80852,-0.36628 z m -5.54897,-2.82647 c -0.10903,-0.19241 0.38072,-0.48646 1.8091,-1.08615 0.69973,-0.29377 1.56916,-0.66126 1.93209,-0.81666 0.36294,-0.1554 0.68533,-0.25477 0.71646,-0.22082 0.13633,0.14866 -0.15838,0.37767 -0.67893,0.52759 -0.54591,0.15723 -2.59639,1.08846 -3.33921,1.51653 -0.20093,0.11577 -0.3987,0.15155 -0.43951,0.0795 z"
       style="fill:#242029;stroke:none;stroke-width:3;stroke-miterlimit:0;stroke-dasharray:none;fill-opacity:1" />
    <path
       id="path3585"
       d="m 796.6369,687.38765 c -3.34168,-0.99999 -4.8235,-6.33156 -3.08161,-11.08782 0.61293,-1.67377 0.94274,-2.1025 2.11391,-2.74828 0.76322,-0.42084 1.83851,-0.82221 2.38949,-0.89195 1.36102,-0.17224 4.13707,0.75929 5.39678,1.81095 l 1.03345,0.86279 -0.37486,3.55438 c -0.5774,5.47382 -1.53544,7.75312 -3.58661,8.53299 -0.98218,0.37341 -2.57755,0.35985 -3.89055,-0.033 z m 4.14714,-1.33999 c 0.29408,-0.1538 0.7269,-0.74362 0.96182,-1.31071 0.36449,-0.88009 0.34555,-1.20201 -0.12957,-2.19838 -0.73169,-1.53439 -0.42376,-3.12366 0.82003,-4.23185 1.1563,-1.03025 1.23406,-2.14054 0.21663,-3.09355 -2.21464,-2.07464 -6.48906,-1.77463 -7.68569,0.53945 -0.28531,0.5517 -0.68471,2.11908 -0.88759,3.48304 -0.31853,2.14164 -0.29111,2.68349 0.20097,3.97203 0.65599,1.71769 1.65998,2.77669 3.02431,3.19009 0.98388,0.29809 2.53881,0.14161 3.47909,-0.35012 z m 2.25034,-5.85833 c 0.0186,-0.41029 -0.10613,-0.74598 -0.27616,-0.74598 -0.48492,0 -0.76993,1.28416 -0.502,2.26185 l 0.24335,0.88781 0.25086,-0.82885 c 0.13801,-0.45587 0.26572,-1.16455 0.28395,-1.57483 z"
       style="fill:#000000" />
    <path
       id="path3323-6-9-2"
       d="M 335.8329,717.59949 783.98064,679.76734"
       style="fill:none;fill-rule:evenodd;stroke:#242029;stroke-width:2.21148181;stroke-linecap:butt;stroke-linejoin:miter;stroke-miterlimit:4;stroke-dasharray:none;stroke-opacity:0.9254902" />
    <circle
       r="11.662613"
       cy="717.81"
       cx="324.1879"
       id="path3201-3-7-5-5"
       style="opacity:1;fill:none;fill-opacity:1;stroke:#241f29;stroke-width:2.34046197;stroke-linecap:square;stroke-linejoin:round;stroke-miterlimit:4;stroke-dasharray:none;stroke-dashoffset:0;stroke-opacity:0.9254902" />
    <path
       id="path8647"
       d="m 319.61701,724.62665 c -0.23755,-0.33913 -0.4319,-0.77508 -0.4319,-0.96876 0,-0.19367 -0.30897,-1.0862 -0.68661,-1.98342 -0.95453,-2.26783 -1.01393,-5.04865 -0.14353,-6.71853 1.61247,-3.09359 4.19374,-5.06687 6.14834,-4.70019 1.53085,0.28721 2.471,0.8866 2.94298,1.87631 0.28225,0.5919 0.67491,0.95296 1.13687,1.04532 0.80771,0.16157 1.97453,1.11722 2.41814,1.98062 0.46541,0.90568 0.35742,2.54962 -0.23084,3.5144 -0.86911,1.42542 -2.99907,3.95335 -3.61055,4.28511 -0.9904,0.53741 -2.66571,1.11008 -4.47392,1.52934 -0.96274,0.22324 -1.94993,0.48474 -2.19376,0.58114 -0.29093,0.11503 -0.59184,-0.0367 -0.87522,-0.44134 z m 3.20364,-1.0623 c 2.18355,-0.46427 4.25204,-1.31097 4.67382,-1.91313 0.21622,-0.3087 0.91271,-1.14628 1.54774,-1.86129 1.96259,-2.20979 2.0294,-3.90042 0.21067,-5.33103 -0.9977,-0.78479 -1.57618,-0.70346 -2.2253,0.31284 -0.30743,0.48136 -0.84121,1.2994 -1.18618,1.81776 -0.34497,0.51842 -0.77618,1.45561 -0.95824,2.0827 -0.35206,1.21241 -1.04206,1.77466 -2.00908,1.63708 -0.72655,-0.10337 -1.04467,-1.56538 -0.34062,-1.56538 0.232,0 0.42183,-0.17866 0.42183,-0.39702 0,-0.21836 0.34513,-0.57552 0.767,-0.79365 0.42183,-0.21817 1.29333,-1.20451 1.93664,-2.19192 1.10668,-1.69859 1.1486,-1.83274 0.77872,-2.49177 -0.21501,-0.38306 -0.78656,-0.92757 -1.27012,-1.20994 -1.75464,-1.02481 -3.40774,-0.0876 -5.75597,3.2633 -0.72482,1.03429 -0.8117,1.36796 -0.79589,3.05711 0.0134,1.42667 0.18116,2.2415 0.6777,3.29112 0.36298,0.76728 0.74511,1.7344 0.84923,2.14921 0.15274,0.6086 0.29951,0.72293 0.76042,0.59225 0.31411,-0.0891 1.17705,-0.29076 1.91763,-0.44824 z m 1.16959,-4.70062 c 0.165,-0.36214 0.19484,-0.65841 0.0663,-0.65841 -0.46891,0 -1.45104,0.99836 -1.27012,1.29112 0.26986,0.43661 0.85729,0.12786 1.20382,-0.63271 z"
       style="fill:#242029;fill-opacity:0.9254902" />
    <path
       id="path3323-6-9-2-8"
       d="M 444.34361,620.22486 784.41476,676.2564"
       style="fill:#e6e6e6;fill-rule:evenodd;stroke:#242029;stroke-width:2.20559406;stroke-linecap:butt;stroke-linejoin:miter;stroke-miterlimit:4;stroke-dasharray:none;stroke-opacity:0.9254902" />
    <path
       id="path8556"
       d="m 414.43662,614.00037 c 0.03,-0.77986 0.31728,-1.88612 0.63854,-2.45837 1.29887,-2.31359 6.0689,-4.54963 10.54401,-4.94269 4.18214,-0.36734 4.7691,-0.36393 6.15233,0.0359 0.78501,0.22695 2.00863,0.27181 2.71918,0.0997 1.38429,-0.33529 2.08505,0.13635 2.63112,1.77085 0.50787,1.52018 0.47645,1.82524 -0.23224,2.25484 -0.37159,0.22526 -0.66466,0.92056 -0.65128,1.54507 0.0338,1.57841 -3.37853,6.79375 -6.07344,9.28249 -2.71685,2.50898 -5.42034,3.60733 -7.61719,3.09462 -1.996,-0.46584 -4.81605,-2.14168 -6.10374,-3.62722 -1.17426,-1.35468 -2.10107,-4.61225 -2.00729,-7.05522 z m 3.09441,6.17389 c 0.52598,0.74615 0.91222,0.88403 1.85205,0.66104 1.61394,-0.38288 3.26973,0.0659 3.53547,0.95809 0.6718,2.25557 0.55691,2.18559 2.40106,1.46214 0.94786,-0.37186 2.40668,-1.2464 3.24181,-1.94347 l 1.51842,-1.26742 -2.85946,0.49192 c -5.04318,0.86759 -4.10887,-0.6648 2.7833,-4.56493 4.51366,-2.55419 4.97691,-2.9628 4.70142,-4.14698 -0.13513,-0.58094 -0.29066,-0.55712 -1.63886,0.25086 -10.36586,6.2125 -12.30251,7.20101 -13.38994,6.83447 -0.39535,-0.13326 -0.83406,-0.42638 -0.97492,-0.65134 -0.39495,-0.63083 1.36164,-3.21247 2.35174,-3.45629 0.48428,-0.12131 2.44026,-1.23764 4.34559,-2.48502 1.90534,-1.24735 4.156,-2.62028 5.00147,-3.05091 1.6578,-0.84443 1.67131,-1.52483 0.0336,-1.69287 -0.77563,-0.0796 -1.60184,0.37714 -3.68791,2.03764 -2.75843,2.196 -6.52247,3.89065 -7.18564,3.23516 -0.66106,-0.65344 -0.13476,-1.74946 1.40344,-2.92258 2.0869,-1.59157 1.01727,-1.63592 -1.82528,-0.0757 -2.36624,1.29877 -2.57087,1.60533 -1.44076,2.15836 1.3215,0.64666 1.1986,2.00251 -0.33688,3.71647 -1.54704,1.72688 -1.53538,2.03173 0.17026,4.45134 z m -1.44037,-4.96909 c 0.58645,-0.14205 1.47611,-1.25348 1.3663,-1.70686 -0.19477,-0.80414 -1.32086,-0.75648 -1.56656,0.0663 -0.244,0.81714 -0.13362,1.72146 0.20026,1.6406 z m 4.87527,7.66737 c 0.49126,0.12741 0.9652,0.11368 1.05319,-0.0306 0.23728,-0.38896 -0.99718,-1.20545 -1.60131,-1.05912 -0.78489,0.19011 -0.46449,0.82708 0.54812,1.08969 z m -0.35082,-5.15104 c 0.66465,-0.16098 10.29893,-5.57435 12.16329,-6.8344 1.99747,-1.34998 1.78075,-2.02053 -0.40043,-1.23897 -0.40624,0.14556 -2.83093,1.56638 -5.38822,3.15738 -2.55728,1.591 -4.89409,2.95197 -5.19292,3.02435 -0.66243,0.16044 -1.84811,1.32784 -1.75193,1.72492 0.0383,0.15836 0.29495,0.23339 0.57021,0.16672 z m 3.66213,-7.72611 c 2.44281,-1.65514 2.66848,-2.08266 1.08143,-2.04865 -0.90677,0.0194 -1.43244,0.31565 -2.21018,1.24601 -0.56124,0.67131 -1.32849,1.44011 -1.70497,1.7085 -0.63972,0.456 -0.63635,0.4877 0.0514,0.48431 0.40476,-0.002 1.65681,-0.62758 2.78233,-1.39017 z m 6.20205,8.36743 c 1.34162,-0.54594 3.15538,-2.39618 2.65075,-2.70401 -0.21617,-0.13186 -5.24023,2.6296 -5.73094,3.15001 -0.50417,0.53467 1.31912,0.27069 3.08019,-0.446 z m 5.31384,-8.69967 c 0.0464,0.19145 0.25492,0.30678 0.46343,0.25628 0.54894,-0.13296 0.3435,-0.61937 -0.5473,-1.29583 -0.7118,-0.54048 -0.74485,-0.53621 -0.38916,0.0504 0.2138,0.35259 0.42666,0.79771 0.47303,0.98916 z"
       style="fill:#666666;fill-opacity:1;stroke-width:5;stroke-miterlimit:4;stroke-dasharray:none" />
    <circle
       r="19.151751"
       cy="614.56091"
       cx="425.47656"
       id="path3201-3-7-5-5-1"
       style="opacity:1;fill:none;fill-opacity:1;stroke:#242029;stroke-width:1.95038486;stroke-linecap:square;stroke-linejoin:round;stroke-miterlimit:4;stroke-dasharray:none;stroke-dashoffset:0;stroke-opacity:1" />
    <flowRoot
       transform="matrix(0.39007698,0,0,0.39007698,703.06448,518.48809)"
       style="font-style:normal;font-variant:normal;font-weight:normal;font-stretch:normal;font-size:125px;line-height:108.00000429%;font-family:Sawasdee;-inkscape-font-specification:'Sawasdee, Normal';text-align:start;letter-spacing:0px;word-spacing:0px;writing-mode:lr-tb;text-anchor:start;fill:#418261;fill-opacity:1;stroke:none;stroke-width:1px;stroke-linecap:butt;stroke-linejoin:miter;stroke-opacity:1"
       id="flowRoot3613"
       xml:space="preserve"><flowRegion
         id="flowRegion3615"><rect
           style="font-style:normal;font-variant:normal;font-weight:normal;font-stretch:normal;font-size:125px;line-height:108.00000429%;font-family:Sawasdee;-inkscape-font-specification:'Sawasdee, Normal';text-align:start;writing-mode:lr-tb;text-anchor:start;fill:#418261;fill-opacity:1"
           y="51.010044"
           x="-1028.8154"
           height="479.55051"
           width="1402.738"
           id="rect3617" /></flowRegion><flowPara
         style="font-style:normal;font-variant:normal;font-weight:normal;font-stretch:normal;font-size:125px;line-height:108.00000429%;font-family:Sawasdee;-inkscape-font-specification:'Sawasdee, Normal';text-align:start;writing-mode:lr-tb;text-anchor:start;fill:#418261;fill-opacity:1"
         id="flowPara3619">experimental</flowPara><flowPara
         style="font-style:normal;font-variant:normal;font-weight:normal;font-stretch:normal;font-size:125px;line-height:108.00000429%;font-family:Sawasdee;-inkscape-font-specification:'Sawasdee, Normal';text-align:start;writing-mode:lr-tb;text-anchor:start;fill:#418261;fill-opacity:1"
         id="flowPara3621">farm</flowPara><flowPara
         style="font-style:normal;font-variant:normal;font-weight:normal;font-stretch:normal;font-size:125px;line-height:108.00000429%;font-family:Sawasdee;-inkscape-font-specification:'Sawasdee, Normal';text-align:start;writing-mode:lr-tb;text-anchor:start;fill:#418261;fill-opacity:1"
         id="flowPara3623">network</flowPara></flowRoot>    <circle
       r="14.373771"
       cy="680.14252"
       cx="798.86908"
       id="path3201-3"
       style="opacity:1;fill:none;fill-opacity:1;stroke:#241f29;stroke-width:1.6314981;stroke-linecap:square;stroke-linejoin:round;stroke-miterlimit:4;stroke-dasharray:none;stroke-dashoffset:0;stroke-opacity:0.9254902" />
  </g>
</svg>
