<?xml version="1.0" encoding="UTF-8" standalone="no"?>
<!-- Created with Inkscape (http://www.inkscape.org/) -->

<svg
   xmlns:dc="http://purl.org/dc/elements/1.1/"
   xmlns:cc="http://creativecommons.org/ns#"
   xmlns:rdf="http://www.w3.org/1999/02/22-rdf-syntax-ns#"
   xmlns:svg="http://www.w3.org/2000/svg"
   xmlns="http://www.w3.org/2000/svg"
   xmlns:xlink="http://www.w3.org/1999/xlink"
   xmlns:sodipodi="http://sodipodi.sourceforge.net/DTD/sodipodi-0.dtd"
   xmlns:inkscape="http://www.inkscape.org/namespaces/inkscape"
   width="699"
   height="288"
   viewBox="0 0 698.99989 287.99998"
   id="svg4272"
   version="1.1"
   inkscape:version="0.91 r13725"
   sodipodi:docname="efn_footer_pln.svg">
  <defs
     id="defs4274">
    <linearGradient
       inkscape:collect="always"
       id="linearGradient4369">
      <stop
         style="stop-color:#666666;stop-opacity:1;"
         offset="0"
         id="stop4371" />
      <stop
         style="stop-color:#666666;stop-opacity:0;"
         offset="1"
         id="stop4373" />
    </linearGradient>
    <linearGradient
       inkscape:collect="always"
       id="linearGradient4353">
      <stop
         style="stop-color:#3b4a59;stop-opacity:1;"
         offset="0"
         id="stop4355" />
      <stop
         style="stop-color:#3b4a59;stop-opacity:0;"
         offset="1"
         id="stop4357" />
    </linearGradient>
    <linearGradient
       inkscape:collect="always"
       id="linearGradient4305">
      <stop
         style="stop-color:#cccccc;stop-opacity:1;"
         offset="0"
         id="stop4307" />
      <stop
         style="stop-color:#cccccc;stop-opacity:0;"
         offset="1"
         id="stop4309" />
    </linearGradient>
    <radialGradient
       inkscape:collect="always"
       xlink:href="#linearGradient4305"
       id="radialGradient4367"
       cx="847.95532"
       cy="609.56183"
       fx="847.95532"
       fy="609.56183"
       r="17.682903"
       gradientUnits="userSpaceOnUse"
       gradientTransform="translate(-125.71429,-197.85712)" />
    <radialGradient
       inkscape:collect="always"
       xlink:href="#linearGradient4369"
       id="radialGradient4375"
       cx="861.65424"
       cy="656.64032"
       fx="861.65424"
       fy="656.64032"
       r="13.607587"
       gradientUnits="userSpaceOnUse"
       gradientTransform="translate(-125.71429,-197.85712)" />
    <radialGradient
       inkscape:collect="always"
       xlink:href="#linearGradient4305"
       id="radialGradient4377"
       cx="872.7771"
       cy="695.31903"
       fx="872.7771"
       fy="695.31903"
       r="8.8048983"
       gradientUnits="userSpaceOnUse"
       gradientTransform="translate(-125.71429,-197.85712)" />
    <radialGradient
       inkscape:collect="always"
       xlink:href="#linearGradient4305"
       id="radialGradient4367-7"
       cx="847.95532"
       cy="609.56183"
       fx="847.95532"
       fy="609.56183"
       r="17.682903"
       gradientUnits="userSpaceOnUse"
       gradientTransform="translate(-1.0351563e-6,0)" />
    <linearGradient
       inkscape:collect="always"
       xlink:href="#linearGradient4353"
       id="linearGradient4411"
       gradientUnits="userSpaceOnUse"
       x1="846.70093"
       y1="609.56183"
       x2="865.63824"
       y2="609.56183"
       gradientTransform="translate(-1.0351563e-6,0)" />
  </defs>
  <sodipodi:namedview
     id="base"
     pagecolor="#ffffff"
     bordercolor="#666666"
     borderopacity="1.0"
     inkscape:pageopacity="0.0"
     inkscape:pageshadow="2"
     inkscape:zoom="1.979899"
     inkscape:cx="496.16375"
     inkscape:cy="59.265443"
     inkscape:document-units="px"
     inkscape:current-layer="layer1"
     showgrid="false"
     inkscape:window-width="1881"
     inkscape:window-height="1056"
     inkscape:window-x="39"
     inkscape:window-y="24"
     inkscape:window-maximized="1"
     fit-margin-top="0"
     fit-margin-left="0"
     fit-margin-right="0"
     fit-margin-bottom="0"
     units="px" />
  <metadata
     id="metadata4277">
    <rdf:RDF>
      <cc:Work
         rdf:about="">
        <dc:format>image/svg+xml</dc:format>
        <dc:type
           rdf:resource="http://purl.org/dc/dcmitype/StillImage" />
        <dc:title />
        <cc:license
           rdf:resource="http://creativecommons.org/licenses/by/3.0/" />
      </cc:Work>
      <cc:License
         rdf:about="http://creativecommons.org/licenses/by/3.0/">
        <cc:permits
           rdf:resource="http://creativecommons.org/ns#Reproduction" />
        <cc:permits
           rdf:resource="http://creativecommons.org/ns#Distribution" />
        <cc:requires
           rdf:resource="http://creativecommons.org/ns#Notice" />
        <cc:requires
           rdf:resource="http://creativecommons.org/ns#Attribution" />
        <cc:permits
           rdf:resource="http://creativecommons.org/ns#DerivativeWorks" />
      </cc:License>
    </rdf:RDF>
  </metadata>
  <g
     inkscape:groupmode="layer"
     id="layer2"
     inkscape:label="Layer 2"
     transform="translate(-85.868432,-37.366623)" />
  <g
     inkscape:label="Layer 1"
     inkscape:groupmode="layer"
     id="layer1"
     transform="translate(-85.868432,-345.63434)">
    <circle
       style="opacity:1;fill:none;fill-opacity:1;stroke:url(#radialGradient4375);stroke-width:2.72899175;stroke-linecap:square;stroke-linejoin:round;stroke-miterlimit:4;stroke-dasharray:none;stroke-dashoffset:0;stroke-opacity:1"
       id="path3201-3-7-9-6"
       cx="735.93994"
       cy="458.7832"
       r="12.243092" />
    <circle
       style="opacity:0.24500002;fill:none;fill-opacity:1;stroke:url(#radialGradient4377);stroke-width:2.72899175;stroke-linecap:square;stroke-linejoin:round;stroke-miterlimit:4;stroke-dasharray:none;stroke-dashoffset:0;stroke-opacity:1"
       id="path3201-3-7-9-6-0"
       cx="747.06281"
       cy="497.46191"
       r="7.4404025" />
    <circle
       style="opacity:0.59899998;fill:none;fill-opacity:1;stroke:url(#radialGradient4367);stroke-width:2.72899175;stroke-linecap:square;stroke-linejoin:round;stroke-miterlimit:4;stroke-dasharray:none;stroke-dashoffset:0;stroke-opacity:1"
       id="path3201-3-7-9"
       cy="411.70471"
       cx="722.24103"
       r="16.318407" />
    <circle
       style="opacity:1;fill:none;fill-opacity:1;stroke:#666666;stroke-width:3.27479029;stroke-linecap:square;stroke-linejoin:round;stroke-miterlimit:4;stroke-dasharray:none;stroke-dashoffset:0;stroke-opacity:1"
       id="path3201"
       cx="522.04602"
       cy="404.4386"
       r="28.851448" />
    <path
       style="fill:#d4aa00;fill-rule:evenodd;stroke:#666666;stroke-width:2.9954195;stroke-linecap:butt;stroke-linejoin:miter;stroke-miterlimit:4;stroke-dasharray:none;stroke-opacity:0.9254902"
       d="M 540.7551,425.53987 750.4399,551.34138"
       id="path3323"
       inkscape:connector-curvature="0"
       sodipodi:nodetypes="cc" />
    <path
       style="fill:none;fill-rule:evenodd;stroke:#666666;stroke-width:3.0943203;stroke-linecap:butt;stroke-linejoin:miter;stroke-miterlimit:4;stroke-dasharray:none;stroke-opacity:0.9254902"
       d="M 712.24733,378.06439 760.804,544.92409"
       id="path3323-6"
       inkscape:connector-curvature="0"
       sodipodi:nodetypes="cc" />
    <circle
       style="opacity:1;fill:none;fill-opacity:1;stroke:#666666;stroke-width:3.27479029;stroke-linecap:square;stroke-linejoin:round;stroke-miterlimit:4;stroke-dasharray:none;stroke-dashoffset:0;stroke-opacity:1"
       id="path3201-3-7"
       cx="708.04767"
       cy="363.21118"
       r="16.318407" />
    <path
       style="fill:#666666;fill-opacity:1;stroke:none;stroke-width:5;stroke-miterlimit:4;stroke-dasharray:none;stroke-opacity:1"
       d="m 515.53679,422.50319 c -2.92076,-1.27699 -4.98403,-5.35406 -5.32638,-10.52508 -0.11093,-1.67555 -0.50235,-3.66919 -0.86983,-4.43034 -1.25593,-2.60142 -1.56824,-4.60836 -1.5706,-10.09324 -0.004,-7.98229 1.26836,-10.55092 6.28185,-12.68728 4.45691,-1.89916 8.27392,-0.93821 12.61019,3.17475 5.12669,4.86265 8.69242,12.98734 9.42876,21.48387 0.4601,5.30892 -1.09624,9.81348 -3.97222,11.49701 -2.19197,1.28312 -5.88897,2.06298 -10.53106,2.22145 -3.53875,0.12081 -4.55404,0.0133 -6.05071,-0.64114 z m 11.69985,-1.06173 c 1.00214,-0.3173 2.10915,-0.57691 2.46003,-0.57691 0.79553,0 2.70621,-1.1477 3.68754,-2.21501 1.42543,-1.55033 2.1241,-4.80736 1.83886,-8.57237 -0.79011,-10.42838 -5.60141,-19.49786 -12.73814,-24.01196 -3.32542,-2.10337 -8.44981,-1.1212 -11.44555,2.19371 -1.95374,2.16191 -2.00103,2.71627 -0.13868,1.6261 1.942,-1.1368 2.98162,-1.11079 2.71174,0.0678 -0.11413,0.49841 -0.34827,1.22338 -0.5203,1.61103 -0.38647,0.87083 0.83572,0.99715 1.35167,0.13971 0.58045,-0.96462 4.42844,-2.65703 6.03765,-2.65544 3.62169,0.004 5.9973,3.25546 2.59434,3.55135 -2.00166,0.17403 -2.55652,0.76847 -1.01826,1.0909 3.96797,0.83171 7.25408,2.87419 8.44336,5.248 1.28328,2.56139 -0.18235,3.41432 -3.01632,1.75538 -1.99716,-1.16908 -1.7854,-0.38756 0.51805,1.91207 3.58271,3.57675 4.28151,4.93546 4.05665,7.88767 -0.0829,1.08849 -1.0017,0.84469 -2.25343,-0.59793 -1.34979,-1.55567 -1.89664,-1.29473 -1.23941,0.59147 0.50775,1.45721 0.059,4.80642 -0.86251,6.43728 l -0.49227,0.87122 -0.79224,-0.92668 c -0.43574,-0.50968 -0.79224,-1.43963 -0.79224,-2.06657 0,-2.34626 -1.15031,-1.77879 -2.08328,1.02775 -0.94124,2.83136 -5.52108,5.07264 -6.20358,3.0359 -0.14565,-0.43466 -0.0628,-1.14771 0.18397,-1.58456 0.80796,-1.42994 0.47387,-1.38784 -1.03833,0.13085 -1.10209,1.10679 -1.70764,1.4272 -2.33876,1.23747 -0.57383,-0.17249 -0.85164,-0.0729 -0.85164,0.30506 0,0.91641 1.90367,2.33481 3.88794,2.89686 2.224,0.62996 7.44027,0.41711 10.05314,-0.41019 z m -6.70868,-3.49691 c 1.47609,-0.95207 1.7303,-1.2921 2.57104,-3.43884 0.52515,-1.34088 1.80513,-2.32096 2.49995,-1.91422 0.20871,0.12216 0.50858,0.94612 0.66643,1.83104 0.566,3.17306 1.74198,1.18498 1.36222,-2.30293 -0.11547,-1.06048 -0.27793,-2.26555 -0.36104,-2.67792 -0.0831,-0.41238 0.17584,-0.95043 0.57542,-1.19569 0.57388,-0.35221 1.00524,-0.2507 2.05326,0.48319 0.72972,0.51098 1.42066,0.84013 1.53543,0.73143 0.49464,-0.46851 -1.72432,-3.90355 -4.08093,-6.31743 -1.40571,-1.43985 -2.55972,-2.93509 -2.56444,-3.32275 -0.0129,-1.06313 1.91781,-0.89012 3.59597,0.32224 1.72595,1.24688 2.35942,0.68414 1.10627,-0.98274 -2.06575,-2.74779 -3.85261,-3.71127 -8.64418,-4.66099 -2.08399,-0.41306 -1.24453,-1.99447 1.31621,-2.47955 1.76521,-0.33439 1.7075,-1.18483 -0.11916,-1.75581 -2.00699,-0.62738 -4.29399,0.0125 -6.53312,1.82779 -2.6677,2.16281 -3.79276,1.59027 -2.81044,-1.43018 0.31982,-0.98335 0.30569,-0.99057 -0.70685,-0.36149 -1.62215,1.00781 -2.84243,3.00867 -3.15727,5.1769 -0.32441,2.23413 -0.1012,2.83349 1.05525,2.83349 1.63865,0 4.74248,5.27497 4.78547,8.13293 0.037,2.45966 -0.40631,3.46704 -1.83325,4.16596 -0.95813,0.46929 -1.24555,0.88942 -1.24555,1.82062 0,0.70946 0.26648,1.30744 0.64374,1.44456 0.35406,0.12868 0.85188,1.01688 1.10627,1.97376 0.6674,2.51044 1.4307,2.54979 2.98708,0.154 0.85119,-1.31025 1.56076,-1.98095 2.01001,-1.89992 0.94668,0.17078 1.09495,1.62519 0.31193,3.0594 -1.02372,1.87503 -0.29236,2.18062 1.87428,0.78315 z m -6.88761,-10.1205 c 0.57908,-1.94201 0.57028,-1.98414 -1.04977,-5.01391 -1.75588,-3.28379 -2.7478,-4.21014 -3.62177,-3.38234 -1.2404,1.17487 1.89009,10.75555 3.42301,10.47593 0.38665,-0.0705 0.9087,-0.94013 1.24853,-2.07968 z"
       id="path3479"
       inkscape:connector-curvature="0"
       sodipodi:nodetypes="csscsssssccssssssscscssssssssscsssscscssccsscssccccscsssscccsssssscssccscsscc" />
    <path
       style="fill:#666666;stroke:none;stroke-width:3;stroke-miterlimit:0;stroke-dasharray:none;fill-opacity:1"
       d="m 702.70726,371.6978 c -1.13799,-0.19133 -2.38285,-0.74545 -3.19652,-1.42281 -0.4594,-0.38246 -1.04401,-0.69539 -1.29911,-0.69539 -0.25516,0 -0.73519,-0.26437 -1.06676,-0.5875 -0.82973,-0.80858 -0.81417,-1.82903 0.0426,-2.7931 0.5118,-0.57587 0.58728,-0.78296 0.48625,-1.33388 -0.20407,-1.1129 0.22836,-2.18458 1.28175,-3.17648 1.46678,-1.3811 6.33361,-4.91276 7.70389,-5.59039 2.17703,-1.07662 3.86447,-1.48708 5.67871,-1.38133 2.41652,0.14085 2.76277,0.2815 3.81234,1.54855 0.49472,0.5972 0.72613,1.12 0.88676,2.00322 0.32246,1.77259 0.35253,1.84956 0.96432,2.4662 0.80958,0.816 1.1101,1.54886 1.13494,2.76764 0.0393,1.91812 -1.02027,3.62262 -3.05539,4.91609 -1.08379,0.68881 -4.29527,1.99636 -6.62828,2.69869 -1.4426,0.43426 -2.36953,0.57681 -4.02854,0.61952 -1.18515,0.0305 -2.40773,0.013 -2.71693,-0.039 z m 6.63811,-1.43629 c 4.92059,-1.37355 7.86785,-3.07918 8.62121,-4.98932 0.77946,-1.976 0.27044,-4.62027 -0.56255,-2.92271 -0.42829,0.87275 -1.82106,2.07359 -3.41288,2.94255 -1.44653,0.78963 -2.01323,0.97624 -2.00483,0.66019 0,-0.0843 0.24654,-0.29121 0.54291,-0.45981 2.5813,-1.46835 4.22344,-2.91459 4.42053,-3.89312 0.15108,-0.75036 -0.28032,-1.57672 -1.17047,-2.24194 -0.78021,-0.58307 -2.51798,-0.76409 -4.1718,-0.43458 -0.56681,0.11293 -1.32564,0.26047 -1.68636,0.32787 -0.36066,0.0674 -0.84549,0.16767 -1.0774,0.22284 -0.59056,0.14051 -0.52659,-0.16837 0.0937,-0.45228 1.91002,-0.87425 5.82503,-1.22226 6.7018,-0.5957 0.59143,0.42265 0.65272,0.40979 0.65191,-0.13675 0,-0.55191 -0.62156,-1.71121 -1.1851,-2.21335 -0.64328,-0.57322 -2.36123,-0.81689 -4.09119,-0.58031 -2.73696,0.37429 -4.22611,1.12085 -8.41954,4.22077 -3.63316,2.68579 -4.09442,3.16089 -4.2432,4.37046 l -0.10911,0.88747 1.20158,-1.19364 c 1.26068,-1.25244 2.31642,-1.94437 2.55766,-1.67635 0.15627,0.17359 -0.76695,1.1007 -1.86602,1.87399 -0.38354,0.26983 -0.82301,0.744 -0.9766,1.0537 -0.15354,0.30971 -0.57276,0.79301 -0.93151,1.074 -0.95456,0.74757 -1.19809,1.32533 -0.84681,2.00858 0.2015,0.39185 0.49029,0.58567 1.02326,0.68675 0.40842,0.0775 1.36749,0.32508 2.13129,0.55028 1.77084,0.52212 2.84868,0.34042 4.32283,-0.72879 0.35886,-0.26026 0.75937,-0.47322 0.89003,-0.47322 0.99264,0 -1.19922,1.5842 -2.80862,2.02996 l -1.34971,0.37384 1.02687,0.22112 c 2.42427,0.52203 3.2463,0.45941 6.72811,-0.5125 z m -7.76415,-3.95481 c -0.15255,-0.26923 0.53271,-0.68066 2.53131,-1.51976 0.97906,-0.41104 2.19558,-0.92524 2.70339,-1.14267 0.50782,-0.21743 0.95892,-0.35647 1.00247,-0.30898 0.19076,0.20802 -0.2216,0.52844 -0.94996,0.73822 -0.76384,0.21999 -3.63289,1.52298 -4.67225,2.12193 -0.28114,0.16199 -0.55786,0.21206 -0.61496,0.11126 z"
       id="path3492"
       inkscape:connector-curvature="0"
       sodipodi:nodetypes="ccscccccsccscccscccccscccssccssccsscccccccccscsscscccsssccc" />
    <path
       style="fill:#666666;fill-opacity:1"
       d="m 761.67401,573.76797 c -5.30998,-1.58899 -7.66462,-10.06095 -4.89672,-17.61871 0.97394,-2.65963 1.49803,-3.34089 3.35902,-4.36705 1.21278,-0.66872 2.92142,-1.3065 3.79693,-1.41732 2.16268,-0.27369 6.57387,1.20652 8.57557,2.87763 l 1.64216,1.37098 -0.59565,5.64796 c -0.9175,8.69798 -2.43984,12.31982 -5.69918,13.55903 -1.56069,0.59336 -4.09577,0.57182 -6.18213,-0.0525 z m 6.58985,-2.12926 c 0.4673,-0.24439 1.15507,-1.18162 1.52836,-2.08274 0.57918,-1.39848 0.54908,-1.91001 -0.2059,-3.49326 -1.16266,-2.43816 -0.67335,-4.96354 1.30305,-6.72447 1.83737,-1.63707 1.96093,-3.40135 0.34422,-4.91569 -3.51909,-3.29662 -10.3112,-2.81991 -12.21267,0.85719 -0.45336,0.87667 -1.088,3.36724 -1.41039,5.5346 -0.50615,3.40309 -0.46258,4.26411 0.31934,6.31161 1.04238,2.72943 2.63773,4.41221 4.80567,5.0691 1.56341,0.47368 4.03421,0.22502 5.52832,-0.55634 z m 3.57582,-9.30897 c 0.0295,-0.65196 -0.16864,-1.18537 -0.43881,-1.18537 -0.77054,0 -1.22344,2.04055 -0.79768,3.59411 l 0.38669,1.41074 0.39861,-1.31706 c 0.21929,-0.72439 0.42224,-1.85049 0.45119,-2.50242 z"
       id="path3585"
       inkscape:connector-curvature="0"
       sodipodi:nodetypes="ccscsccsccccsscccccccscccc" />
    <path
       style="fill:none;fill-rule:evenodd;stroke:#666666;stroke-width:3.0943203;stroke-linecap:butt;stroke-linejoin:miter;stroke-miterlimit:4;stroke-dasharray:none;stroke-opacity:0.9254902"
       d="M 120.11799,615.38403 747.33087,565.98007"
       id="path3323-6-9-2"
       inkscape:connector-curvature="0"
       sodipodi:nodetypes="cc" />
    <circle
       style="opacity:1;fill:none;fill-opacity:1;stroke:#666666;stroke-width:3.27479029;stroke-linecap:square;stroke-linejoin:round;stroke-miterlimit:4;stroke-dasharray:none;stroke-dashoffset:0;stroke-opacity:1"
       id="path3201-3-7-5-5"
       cx="103.8242"
       cy="615.67853"
       r="16.318407" />
    <path
       style="fill:#666666;fill-opacity:0.9254902"
       d="m 97.428604,625.21648 c -0.33238,-0.47451 -0.60432,-1.0845 -0.60432,-1.35549 0,-0.27099 -0.43231,-1.51982 -0.9607,-2.77522 -1.33559,-3.17316 -1.41871,-7.0641 -0.20084,-9.40061 2.25619,-4.32857 5.867906,-7.0896 8.602796,-6.57654 2.14198,0.40187 3.45745,1.24054 4.11784,2.62534 0.39493,0.8282 0.94434,1.33339 1.59072,1.46263 1.13015,0.22607 2.76277,1.56322 3.38348,2.77129 0.6512,1.26724 0.5001,3.56745 -0.32299,4.91738 -1.21607,1.99445 -4.19633,5.53155 -5.05191,5.99575 -1.38577,0.75195 -3.72988,1.55323 -6.25994,2.13986 -1.34707,0.31236 -2.728356,0.67826 -3.069526,0.81313 -0.40706,0.16096 -0.8281,-0.0513 -1.22461,-0.61752 z m 4.482546,-1.48637 c 3.05525,-0.64961 5.94949,-1.83432 6.53964,-2.67687 0.30254,-0.43194 1.27707,-1.60388 2.16561,-2.60433 2.74608,-3.09195 2.83956,-5.45749 0.29477,-7.45921 -1.39598,-1.09809 -2.2054,-0.98429 -3.11365,0.43773 -0.43016,0.67352 -1.17703,1.81812 -1.65971,2.54342 -0.48269,0.72537 -1.08603,2.0367 -1.34078,2.91413 -0.4926,1.6964 -1.45806,2.48311 -2.81112,2.29061 -1.01659,-0.14464 -1.46171,-2.19029 -0.47659,-2.19029 0.32462,0 0.59023,-0.24998 0.59023,-0.55551 0,-0.30554 0.48291,-0.80528 1.07318,-1.11049 0.59023,-0.30526 1.80964,-1.68536 2.70976,-3.06694 1.54848,-2.37669 1.60714,-2.56439 1.0896,-3.48651 -0.30084,-0.53598 -1.10057,-1.29786 -1.77716,-1.69296 -2.45511,-1.43392 -4.76813,-0.12253 -8.053796,4.56604 -1.01417,1.44719 -1.13573,1.91406 -1.11361,4.27753 0.0188,1.9962 0.25348,3.13632 0.94824,4.60496 0.50789,1.07358 1.04257,2.42678 1.18825,3.00718 0.21372,0.85156 0.41908,1.01153 1.06398,0.82869 0.43951,-0.12461 1.646936,-0.40684 2.683156,-0.62718 z m 1.6365,-6.57714 c 0.23087,-0.50672 0.27262,-0.92126 0.0928,-0.92126 -0.6561,0 -2.0303,1.39692 -1.77716,1.80654 0.37759,0.61092 1.19952,0.17891 1.68439,-0.88528 z"
       id="path8647"
       inkscape:connector-curvature="0"
       sodipodi:nodetypes="csssccccscccccssscccssscsccscccsccsccc" />
    <path
       style="fill:#e6e6e6;fill-rule:evenodd;stroke:#666666;stroke-width:3.0943203;stroke-linecap:butt;stroke-linejoin:miter;stroke-miterlimit:4;stroke-dasharray:none;stroke-opacity:0.9254902"
       d="m 271.94773,479.14126 476.3853,77.53641"
       id="path3323-6-9-2-8"
       inkscape:connector-curvature="0"
       sodipodi:nodetypes="cc" />
    <g
       id="g8767"
       transform="matrix(0.54579836,0,0,0.54579836,333.17832,310.13921)"
       style="stroke-width:5;stroke-miterlimit:4;stroke-dasharray:none">
      <path
         inkscape:connector-curvature="0"
         id="path8556"
         d="m -188.85633,293.67664 c 0.0768,-1.99925 0.81337,-4.83525 1.63695,-6.30225 3.32979,-5.93112 15.55821,-11.66342 27.0306,-12.67108 10.72132,-0.9417 12.22604,-0.93297 15.77207,0.0921 2.01245,0.58181 5.14934,0.69681 6.97089,0.25561 3.54875,-0.85954 5.34524,0.34954 6.74513,4.53975 1.30197,3.89713 1.22142,4.67917 -0.59537,5.7805 -0.95261,0.57748 -1.70392,2.35993 -1.66961,3.96094 0.0867,4.0464 -8.66119,17.41642 -15.56987,23.79654 -6.9649,6.43201 -13.89555,9.24774 -19.52738,7.93336 -5.11696,-1.19421 -12.34643,-5.49041 -15.64754,-9.29873 -3.01032,-3.47286 -5.38629,-11.82393 -5.14587,-18.08673 z m 7.93281,15.82738 c 1.34841,1.91283 2.33856,2.26628 4.74792,1.69464 4.13747,-0.98156 8.38225,0.16884 9.06351,2.45615 1.72223,5.78237 1.42768,5.60297 6.15534,3.74834 2.42995,-0.9533 6.16977,-3.19527 8.31071,-4.98228 l 3.8926,-3.24914 -7.3305,1.26107 c -12.92868,2.22415 -10.53347,-1.70428 7.13526,-11.70264 11.57121,-6.54791 12.75878,-7.59541 12.05255,-10.63117 -0.34642,-1.4893 -0.74513,-1.42823 -4.20137,0.64309 -26.57389,15.92635 -31.53867,18.46049 -34.32642,17.52083 -1.0135,-0.34162 -2.13819,-1.09308 -2.49929,-1.66978 -1.0125,-1.6172 3.49069,-8.23546 6.02892,-8.86053 1.24149,-0.31099 6.25583,-3.17281 11.14033,-6.3706 4.88452,-3.1977 10.6543,-6.71733 12.82176,-7.82128 4.24991,-2.16478 4.28455,-3.90906 0.0862,-4.33985 -1.98839,-0.20396 -4.10647,0.96685 -9.45431,5.22368 -7.0715,5.62966 -16.72098,9.97407 -18.42107,8.29365 -1.69471,-1.67514 -0.34548,-4.48491 3.59785,-7.4923 5.34996,-4.08016 2.60787,-4.19386 -4.6793,-0.19403 -6.06607,3.32954 -6.59066,4.11542 -3.69352,5.53316 3.3878,1.65779 3.07274,5.13364 -0.86361,9.52755 -3.96601,4.42702 -3.9361,5.20854 0.43647,11.41144 z m -3.69253,-12.73876 c 1.50342,-0.36414 3.78416,-3.21341 3.50264,-4.3757 -0.49931,-2.06149 -3.38614,-1.93929 -4.01601,0.16986 -0.62552,2.09482 -0.34255,4.41315 0.51337,4.20584 z m 12.49824,19.65605 c 1.25938,0.32662 2.47437,0.29142 2.69993,-0.0784 0.6083,-0.99712 -2.55635,-3.09027 -4.10511,-2.71515 -2.01214,0.48736 -1.19076,2.1203 1.40518,2.79352 z m -0.89938,-13.20518 c 1.70391,-0.4127 26.4023,-14.29038 31.18177,-17.52066 5.12072,-3.46079 4.56513,-5.17981 -1.02654,-3.17621 -1.04143,0.37315 -7.25737,4.01556 -13.81321,8.09425 -6.55585,4.07869 -12.54648,7.56765 -13.31255,7.7532 -1.69822,0.41132 -4.73781,3.40406 -4.49125,4.42202 0.0983,0.40596 0.75614,0.59832 1.46178,0.4274 z m 9.38823,-19.80663 c 6.26237,-4.24312 6.8409,-5.33911 2.77236,-5.25191 -2.32461,0.0498 -3.6722,0.80919 -5.66601,3.19426 -1.43881,1.72097 -3.40571,3.69187 -4.37087,4.37991 -1.63997,1.169 -1.63135,1.25026 0.13176,1.24157 1.03764,-0.005 4.24738,-1.60886 7.13276,-3.56383 z m 15.89956,21.45071 c 3.43938,-1.39958 8.08911,-6.14283 6.79545,-6.93198 -0.55418,-0.33804 -13.43384,6.74122 -14.69182,8.07534 -1.29249,1.37067 3.38169,0.69394 7.89637,-1.14336 z m 13.62254,-22.30244 c 0.11888,0.4908 0.6535,0.78646 1.18805,0.65699 1.40725,-0.34085 0.88058,-1.58781 -1.40307,-3.32197 -1.82476,-1.38558 -1.90949,-1.37463 -0.99763,0.12918 0.54808,0.90388 1.09377,2.04499 1.21265,2.5358 z"
         style="fill:#666666;fill-opacity:1;stroke-width:5;stroke-miterlimit:4;stroke-dasharray:none" />
      <circle
         r="49.097363"
         cy="295.11362"
         cx="-160.55437"
         id="path3201-3-7-5-5-1"
         style="opacity:1;fill:none;fill-opacity:1;stroke:#666666;stroke-width:5;stroke-linecap:square;stroke-linejoin:round;stroke-miterlimit:4;stroke-dasharray:none;stroke-dashoffset:0;stroke-opacity:1" />
    </g>
    <circle
       style="opacity:1;fill:none;fill-opacity:1;stroke:#666666;stroke-width:2.72899175;stroke-linecap:square;stroke-linejoin:round;stroke-miterlimit:4;stroke-dasharray:none;stroke-dashoffset:0;stroke-opacity:1"
       id="path3201-5-6-8"
       cx="288.78665"
       cy="436.33258"
       r="7.5315728" />
    <circle
       style="opacity:1;fill:none;fill-opacity:1;stroke:#666666;stroke-width:2.2828033;stroke-linecap:square;stroke-linejoin:round;stroke-miterlimit:4;stroke-dasharray:none;stroke-dashoffset:0;stroke-opacity:1"
       id="path3201-3"
       cx="767.31427"
       cy="563.72351"
       r="0" />
    <path
       style="fill:none;fill-opacity:1"
       d="m 773.92494,297.2716 c -0.6538,-0.60985 -0.19524,-1.77429 1.95305,-4.95946 1.5441,-2.28937 3.30521,-5.82508 3.91358,-7.85714 1.39391,-4.65589 1.4389,-13.37279 0.0919,-17.79467 -3.37058,-11.06437 -13.40738,-19.58545 -25.22365,-21.41444 -12.91299,-1.99875 -25.95335,5.32369 -31.92457,17.92632 -2.06988,4.3686 -2.24158,5.30547 -2.24158,12.23099 0,6.95674 0.16565,7.84968 2.28675,12.32752 6.94724,14.66618 22.77393,21.60956 37.7482,16.56064 1.94507,-0.65582 4.92377,-2.12383 6.61936,-3.26223 l 3.08288,-2.06983 c -1.33477,0.22607 4.17215,-0.42114 3.69408,-1.6877 z M 397.73032,255.13872 c -15.54541,10.35016 -16.65116,-1.03338 -20.97536,-1.164 -1.50328,0 -1.71759,0.25419 -1.35502,1.60714 -24.08273,97.4364 30.1313,3.5009 22.33038,-0.44314 z m -70.64015,0.16825 c -4.30059,-2.194 -10.85344,-1.66217 -14.9441,1.21286 -18.5938,52.52083 38.017,11.10653 14.9441,-1.21286 z m 111.08498,0.7724 c -2.75324,-1.74605 -4.07225,-2.10467 -7.74102,-2.10467 -3.80382,0 -4.90583,0.32465 -7.8798,2.32143 -24.11389,55.01139 35.55205,12.71016 15.62082,-0.21676 z m 120.5379,-2.10467 c -318.62827,47.5946 -159.31414,23.7973 0,0 z m 87.93385,-0.16484 c -377.25084,47.70449 -188.62542,23.85224 0,0 z m -278.65365,0.55211 c 0,-0.26519 -0.87828,-0.38046 -1.95175,-0.25615 -18.5151,21.47163 -4.41817,0.96878 -21.4411,-0.10901 -0.88393,-0.0122 -1.60715,0.28611 -1.60715,0.66283 16.14494,45.42825 5.09666,34.98465 25,-0.29767 z m 102.2423,1.0175 c -0.92745,-0.77264 -2.08458,-1.4048 -2.5714,-1.4048 -13.40351,11.48506 -4.22303,0.98676 -11.3763,0.12164 -1.67648,-0.19141 -1.97731,-0.0134 -1.60715,0.95128 -16.46981,70.65098 17.97697,2.34972 15.55485,0.33188 z m 10.2577,-1.04763 -1.60714,-0.22825 -1.60714,-0.22825 c -0.41698,40.81586 3.68391,42.05949 3.21428,0.4565 z m 49.28336,1.9978 c -3.25769,-3.25768 -7.09104,-3.29559 -10.72372,-0.10605 -9.97088,16.27542 -4.97428,-9.0799 -18.49789,-0.86747 -10.41244,12.71917 -1.97267,-0.47116 -8.55273,-1.25978 -1.67647,-0.19141 -1.97731,-0.0134 -1.60714,0.95128 -6.64588,40.21142 61.13869,23.74538 39.38148,1.28202 z m 57.05593,-0.1228 c -0.35748,-1.78738 -0.80307,-2.23214 -2.23632,-2.23214 -1.67083,0 -1.76044,0.17816 -1.34715,2.67857 24.52705,31.50549 10.33757,34.18856 3.58347,-0.44643 z m 44.60325,-0.625 c 0.21519,-1.51521 -0.0197,-1.60714 -4.10714,-1.60714 l -4.3354,0 0,-3.92857 c 0,-3.71429 -0.0974,-3.92858 -1.78571,-3.92858 -1.68554,0 -1.78572,0.2176 -1.78572,3.8789 0,3.47873 -0.1658,3.90244 -1.60714,4.10714 -1.05487,0.14981 -1.60714,0.71916 -1.60714,1.65682 1.89974,46.99933 11.15822,25.6828 15.22825,-0.17857 z m 42.98603,-17.32143 -1.78571,0 -1.78571,0 c -0.36133,60.04721 3.57142,60.04721 3.57142,0 z m -194.23875,10.68918 c 1.82368,-0.97601 1.79525,-3.98895 -0.047,-4.97487 -3.18455,-1.70432 -6.15218,3.12761 -3.03571,4.94278 1.56828,0.91345 1.43836,0.91209 3.08267,0.0321 z"
       id="path4295"
       inkscape:connector-curvature="0"
       transform="translate(0,308.26772)"
       sodipodi:nodetypes="csscssssssccccccccccscccccccccccccccccccccccccccscccscsssscccccccsscc" />
    <rect
       style="fill:none;fill-opacity:1"
       id="rect4348"
       width="0"
       height="0"
       x="94.846695"
       y="350.45688"
       ry="0" />
    <circle
       style="opacity:1;fill:url(#linearGradient4411);fill-opacity:1;stroke:url(#radialGradient4367-7);stroke-width:2.72899175;stroke-linecap:square;stroke-linejoin:round;stroke-miterlimit:4;stroke-dasharray:none;stroke-dashoffset:0;stroke-opacity:1"
       id="path3201-3-7-9-5"
       cy="609.56183"
       cx="847.95532"
       r="0" />
    <text
       xml:space="preserve"
       style="font-style:normal;font-weight:normal;font-size:40px;line-height:125%;font-family:sans-serif;letter-spacing:0px;word-spacing:0px;fill:#cccccc;fill-opacity:1;stroke:none;stroke-width:1px;stroke-linecap:butt;stroke-linejoin:miter;stroke-opacity:1"
       x="158.62782"
       y="571.49146"
       id="text4490"
       sodipodi:linespacing="125%"><tspan
         sodipodi:role="line"
         id="tspan4492"
         x="158.62782"
         y="571.49146"
         style="font-style:normal;font-variant:normal;font-weight:normal;font-stretch:normal;font-size:67.49999237px;font-family:Sawasdee;-inkscape-font-specification:Sawasdee">network</tspan></text>
    <circle
       style="opacity:1;fill:none;fill-opacity:1;stroke:#666666;stroke-width:3.27479029;stroke-linecap:square;stroke-linejoin:round;stroke-miterlimit:4;stroke-dasharray:none;stroke-dashoffset:0;stroke-opacity:1"
       id="path3201-36"
       cx="522.04596"
       cy="404.43854"
       r="0" />
    <circle
       style="opacity:1;fill:none;fill-opacity:1;stroke:#666666;stroke-width:2.02807331;stroke-linecap:square;stroke-linejoin:round;stroke-miterlimit:4;stroke-dasharray:none;stroke-dashoffset:0;stroke-opacity:1"
       id="path3201-0"
       cx="765.23492"
       cy="561.45581"
       r="17.867661" />
    <text
       xml:space="preserve"
       style="font-style:normal;font-weight:normal;font-size:40px;line-height:125%;font-family:sans-serif;letter-spacing:0px;word-spacing:0px;fill:#cccccc;fill-opacity:1;stroke:none;stroke-width:1px;stroke-linecap:butt;stroke-linejoin:miter;stroke-opacity:1"
       x="113.49169"
       y="420.81522"
       id="text4490-3"
       sodipodi:linespacing="125%"><tspan
         sodipodi:role="line"
         id="tspan4492-6"
         x="113.49169"
         y="420.81522"
         style="font-style:normal;font-variant:normal;font-weight:normal;font-stretch:normal;font-size:67.49999237px;font-family:Sawasdee;-inkscape-font-specification:Sawasdee">experimental</tspan></text>
    <text
       xml:space="preserve"
       style="font-style:normal;font-weight:normal;font-size:40px;line-height:125%;font-family:sans-serif;letter-spacing:0px;word-spacing:0px;fill:#cccccc;fill-opacity:1;stroke:none;stroke-width:1px;stroke-linecap:butt;stroke-linejoin:miter;stroke-opacity:1"
       x="320.63455"
       y="510.81512"
       id="text4490-7"
       sodipodi:linespacing="125%"><tspan
         sodipodi:role="line"
         id="tspan4492-5"
         x="320.63455"
         y="510.81512"
         style="font-style:normal;font-variant:normal;font-weight:normal;font-stretch:normal;font-size:89.99999237px;font-family:Sawasdee;-inkscape-font-specification:Sawasdee">farm</tspan></text>
  </g>
</svg>
