<?xml version="1.0" encoding="UTF-8" standalone="no"?>
<!-- Created with Inkscape (http://www.inkscape.org/) -->

<svg
   xmlns:dc="http://purl.org/dc/elements/1.1/"
   xmlns:cc="http://creativecommons.org/ns#"
   xmlns:rdf="http://www.w3.org/1999/02/22-rdf-syntax-ns#"
   xmlns:svg="http://www.w3.org/2000/svg"
   xmlns="http://www.w3.org/2000/svg"
   xmlns:sodipodi="http://sodipodi.sourceforge.net/DTD/sodipodi-0.dtd"
   xmlns:inkscape="http://www.inkscape.org/namespaces/inkscape"
   width="34.807884mm"
   height="14.111111mm"
   viewBox="0 0 123.33502 49.999998"
   id="svg6119"
   version="1.1"
   inkscape:version="0.91 r13725"
   sodipodi:docname="efn_short.svg">
  <defs
     id="defs6121" />
  <sodipodi:namedview
     id="base"
     pagecolor="#ffffff"
     bordercolor="#666666"
     borderopacity="1.0"
     inkscape:pageopacity="0.0"
     inkscape:pageshadow="2"
     inkscape:zoom="5.6"
     inkscape:cx="65.4767"
     inkscape:cy="8.8698881"
     inkscape:document-units="px"
     inkscape:current-layer="layer1"
     showgrid="false"
     fit-margin-top="0"
     fit-margin-left="0"
     fit-margin-right="0"
     fit-margin-bottom="0"
     inkscape:showpageshadow="false"
     showborder="false"
     inkscape:window-width="1881"
     inkscape:window-height="1056"
     inkscape:window-x="39"
     inkscape:window-y="24"
     inkscape:window-maximized="1" />
  <metadata
     id="metadata6124">
    <rdf:RDF>
      <cc:Work
         rdf:about="">
        <dc:format>image/svg+xml</dc:format>
        <dc:type
           rdf:resource="http://purl.org/dc/dcmitype/StillImage" />
        <dc:title></dc:title>
      </cc:Work>
    </rdf:RDF>
  </metadata>
  <g
     inkscape:label="Layer 1"
     inkscape:groupmode="layer"
     id="layer1"
     transform="translate(51.205292,-162.23074)">
    <g
       transform="matrix(0.96556022,0,0,0.96556022,380.13621,-1795.6015)"
       id="g6096">
      <g
         id="g6754">
        <g
           transform="matrix(1.7793368,0,0,1.7793368,121.45183,2315.7136)"
           style="font-style:normal;font-weight:normal;font-size:40px;line-height:125%;font-family:sans-serif;letter-spacing:0px;word-spacing:0px;fill:#418261;fill-opacity:1;stroke:none;stroke-width:1px;stroke-linecap:butt;stroke-linejoin:miter;stroke-opacity:1"
           id="flowRoot9810-3" />
      </g>
      <g
         id="g6802"
         transform="matrix(0.15214536,0,0,0.15214536,-378.75928,1719.1648)">
        <circle
           style="opacity:1;fill:none;fill-opacity:1;stroke:#a4ad23;stroke-width:8.98769474;stroke-linecap:square;stroke-linejoin:round;stroke-miterlimit:4;stroke-dasharray:none;stroke-dashoffset:0;stroke-opacity:1"
           id="path3201-3-7-0-3"
           cx="301.71732"
           cy="2194.5286"
           r="165.64948"
           transform="matrix(0.96592583,0.25881905,-0.25881905,0.96592583,0,0)"
           inkscape:export-xdpi="72"
           inkscape:export-ydpi="72"
           inkscape:export-filename="/home/onion/www/efn-drupal/themes/minimus/images/efn_logo.png" />
        <path
           id="path6761"
           style="font-style:normal;font-variant:normal;font-weight:normal;font-stretch:normal;font-size:215px;line-height:125%;font-family:Sawasdee;-inkscape-font-specification:'Sawasdee, Normal';text-align:start;letter-spacing:0px;word-spacing:0px;writing-mode:lr-tb;text-anchor:start;fill:#418261;fill-opacity:1;stroke:none;stroke-width:1px;stroke-linecap:butt;stroke-linejoin:miter;stroke-opacity:1"
           d="m -98.598633,-50.128006 77.370606,0 q -2.939453,-15.852051 -13.857422,-26.140137 -10.917969,-10.288086 -24.985352,-10.288086 -13.962402,0 -24.880371,10.288086 -10.812988,10.288086 -13.647461,26.140137 z m 87.658692,8.923339 -89.128419,0 q 0,18.791504 11.757813,31.9140629 11.757813,13.1225586 27.819824,13.1225586 10.603028,0 20.786133,-5.6689453 10.183106,-5.6689453 15.53711,-15.2221682 l 8.293457,4.724121 q -6.403809,11.44287143 -18.896485,18.7915042 -12.492676,7.2436528 -25.720215,7.2436528 -13.332519,0 -24.565429,-7.4536137 -11.12793,-7.4536133 -17.531738,-20.0512693 -6.29883,-12.702637 -6.29883,-27.399903 0,-14.592285 6.40381,-27.189941 6.508789,-12.597656 17.741699,-20.05127 11.337891,-7.558593 24.67041,-7.558593 12.597656,0 23.410645,6.82373 10.917969,6.71875 17.636719,18.161621 6.718749,11.442871 7.873535,25.090332 l 0.209961,4.724121 z"
           transform="matrix(1.7793368,0,0,1.7793368,121.45183,2315.7136)"
           inkscape:connector-curvature="0" />
        <path
           id="path6763"
           style="font-style:normal;font-variant:normal;font-weight:normal;font-stretch:normal;font-size:215px;line-height:125%;font-family:Sawasdee;-inkscape-font-specification:'Sawasdee, Normal';text-align:start;letter-spacing:0px;word-spacing:0px;writing-mode:lr-tb;text-anchor:start;fill:#418261;fill-opacity:1;stroke:none;stroke-width:1px;stroke-linecap:butt;stroke-linejoin:miter;stroke-opacity:1"
           d="m 18.769531,12.125412 0,-97.106934 -8.9233396,0 0,-9.343262 8.9233396,0 0,-9.448246 q 0,-17.42675 11.337891,-29.81445 11.442871,-12.38769 27.504883,-12.38769 l 0,6.08886 q -11.757813,0 -20.681153,11.12793 -8.92334,11.02295 -8.92334,24.98535 l 0,9.448246 29.604493,0 -3.149414,9.343262 -26.455079,0 0,97.106934 -9.238281,0 z"
           transform="matrix(1.7793368,0,0,1.7793368,121.45183,2315.7136)"
           inkscape:connector-curvature="0" />
        <path
           id="path6765"
           style="font-style:normal;font-variant:normal;font-weight:normal;font-stretch:normal;font-size:215px;line-height:125%;font-family:Sawasdee;-inkscape-font-specification:'Sawasdee, Normal';text-align:start;letter-spacing:0px;word-spacing:0px;writing-mode:lr-tb;text-anchor:start;fill:#418261;fill-opacity:1;stroke:none;stroke-width:1px;stroke-linecap:butt;stroke-linejoin:miter;stroke-opacity:1"
           d="m 72.414551,-94.324784 10.078125,0 q 1.994629,6.928711 1.994629,14.067383 l 0,15.957031 q 5.773925,-13.122558 15.957035,-22.36084 10.28808,-9.343261 19.94629,-9.343261 10.708,0 18.05664,5.983886 7.45361,5.983887 10.708,15.327149 3.35938,9.343262 3.35938,21.101074 l 0,65.717774 -9.23828,0 0,-65.717774 q 0,-5.773926 -1.15479,-11.12793 -1.0498,-5.354003 -3.46435,-10.498046 -2.41455,-5.144043 -7.24366,-8.188477 -4.72412,-3.149414 -11.23291,-3.149414 -6.19384,0 -12.91259,4.829101 -6.61377,4.829102 -11.547855,11.862793 -4.829102,6.928711 -8.083496,14.802247 -3.149414,7.873535 -3.149414,13.857421 l 0,53.330079 -9.448243,0 0,-92.382813 q 0,-9.02832 -2.624511,-14.067383 z"
           transform="matrix(1.7793368,0,0,1.7793368,121.45183,2315.7136)"
           inkscape:connector-curvature="0" />
        <path
           style="fill:#418261;fill-opacity:1;stroke:none;stroke-width:5;stroke-miterlimit:4;stroke-dasharray:none;stroke-opacity:1"
           d="m -408.75914,2218.5242 c -1.23218,-20.3008 16.56548,-44.673 45.94552,-62.9177 9.51981,-5.9117 20.0707,-14.3907 23.4464,-18.8421 11.53718,-15.2137 22.40301,-23.2941 54.64584,-40.637 46.92475,-25.2378 65.83285,-26.2727 93.39746,-5.102 24.50434,18.8204 30.27716,43.1138 19.0705,80.258 -13.2494,43.9149 -50.34999,89.4431 -98.10394,120.3891 -29.83834,19.336 -60.98172,24.9011 -79.48738,14.2039 -14.1041,-8.1532 -29.75305,-26.2781 -44.57683,-51.6296 -11.30021,-19.326 -13.70657,-25.3199 -14.33757,-35.7226 z m 41.25557,61.8028 c 4.86483,4.5785 9.70399,9.9233 10.75402,11.8773 2.3807,4.4304 14.84693,11.4449 24.05932,13.5378 13.38139,3.0399 34.62289,-3.3599 55.90645,-16.8442 58.95209,-37.3492 97.8806,-92.7993 103.0649,-146.8067 2.41599,-25.1655 -18.69418,-50.6004 -47.15022,-56.8102 -18.55858,-4.0499 -21.95933,-2.5618 -9.97611,4.3653 12.49566,7.2235 15.45373,13.0954 7.71604,15.3163 -3.27201,0.9391 -8.23526,1.9258 -11.02945,2.1926 -6.27688,0.5992 -3.36206,7.8047 3.22346,7.969 7.40904,0.1848 28.87536,16.2674 33.68181,25.2341 10.80954,20.1849 -1.19392,43.6853 -13.11745,25.6689 -7.01354,-10.5975 -12.16907,-11.8095 -9.46128,-2.2242 6.98426,24.7258 4.80888,49.4798 -5.58972,63.6033 -11.22012,15.2396 -20.62128,9.7722 -19.34783,-11.2519 0.89724,-14.8162 -3.06424,-11.1676 -9.69242,8.9264 -10.30867,31.2533 -16.20642,39.4379 -34.23773,47.5133 -6.64821,2.9775 -7.96439,-2.9097 -3.22789,-14.4387 5.10767,-12.4324 1.93676,-14.6534 -7.1869,-5.0336 -7.04847,7.4317 -28.08422,15.5147 -40.43088,15.5356 l -6.59554,0.011 3.07768,-7.3399 c 1.69277,-4.0369 6.09377,-8.9606 9.77996,-10.9414 13.79548,-7.4131 7.01659,-12.0264 -12.27719,-8.3548 -19.46457,3.7041 -46.34843,-14.72 -36.41541,-24.9561 2.11984,-2.1845 6.56025,-3.9764 9.86757,-3.9821 10.82571,-0.018 9.57809,-1.7458 -3.87679,-5.369 -9.80565,-2.6408 -13.50178,-5.0008 -14.27492,-9.115 -0.70319,-3.7406 -2.11942,-4.9734 -4.34222,-3.779 -5.38842,2.8955 -8.03151,17.9788 -5.39807,30.8052 2.95148,14.376 19.81327,42.7533 32.49681,54.6907 z m 0.48489,-48.41 c 10.01524,5.2124 12.77514,5.554 27.91368,3.4532 9.45552,-1.3119 19.0489,2.7196 18.73666,7.8744 -0.0938,1.5482 -4.04125,5.8217 -8.7718,9.4967 -16.96314,13.1775 -1.75425,13.4451 17.61715,0.31 5.88991,-3.9937 12.48914,-8.7058 14.66534,-10.4717 2.17594,-1.7658 6.11433,-2.0235 8.75221,-0.5732 3.78838,2.0831 4.48257,4.8061 3.30354,12.9614 -0.82062,5.6783 -0.6883,10.5662 0.29431,10.8618 4.23517,1.2745 17.79181,-21.9363 24.93264,-42.6873 4.25906,-12.3776 9.59738,-23.5288 11.86261,-24.7799 6.21219,-3.4314 10.97303,7.868 8.86657,21.0444 -2.16639,13.5516 3.03808,15.3014 9.0888,3.056 9.97448,-20.1862 10.29226,-33.1816 1.53725,-62.867 -3.80779,-12.911 8.00253,-13.2325 18.51821,-0.5042 7.24836,8.7742 12.07631,5.7657 9.9669,-6.2111 -2.31715,-13.1594 -12.92292,-23.8744 -30.29802,-30.6084 -20.70019,-8.0231 -20.70049,-16.0979 -10e-4,-20.1704 6.73906,-1.3259 6.73924,-1.4274 0.0103,-5.0788 -10.78033,-5.8496 -26.19685,-6.3235 -39.88756,-1.2264 -14.10715,5.2522 -16.96318,8.3891 -13.50241,14.8294 4.90386,9.1258 -16.82351,43.078 -33.49904,52.3472 -14.35143,7.9778 -21.6014,8.6916 -29.98092,2.953 -5.62664,-3.8532 -8.9571,-4.1263 -14.43243,-1.1841 -4.1713,2.2414 -6.88991,5.6149 -6.56708,8.1491 0.30296,2.3783 -3.42976,7.9571 -8.29474,12.3972 -12.7635,11.6486 -10.71072,16.0239 8.03347,17.1219 10.25124,0.6006 16.31837,2.433 17.1864,5.1909 1.82879,5.8118 -6.27891,11.2328 -17.05513,11.4035 -14.08839,0.2232 -13.69666,5.2618 1.00429,12.9124 z m 38.89446,-70.3339 c 13.1516,-2.9109 13.37267,-3.093 26.33902,-21.6879 14.05345,-20.154 16.53155,-28.6049 9.04897,-30.8567 -10.62006,-3.1958 -57.58393,44.5088 -51.35244,52.1623 1.57179,1.9304 8.24724,2.0903 15.96445,0.3823 z"
           id="path3479"
           inkscape:connector-curvature="0" />
      </g>
    </g>
  </g>
</svg>
